#N canvas -14 15 1920 984 10;
#X obj 4 386 *~;
#X floatatom 22 358 5 0 0 2 dry - - 0;
#X obj 7 4 hsl 130 20 0 1 0 0 sDryWet rDryWet Dry/Wet 5 10 0 12 #fcfcfc #000000 #000000 0 1;
#X obj 22 223 - 1;
#X obj 22 248 * -1;
#X obj 22 273 * 2;
#X floatatom 22 323 5 0 0 0 - - - 0;
#X obj 22 298 min 1;
#X obj 109 278 * 2;
#X obj 109 303 min 1;
#X floatatom 109 328 5 0 0 0 - - - 0;
#X obj 56 387 *~;
#X obj 90 386 *~;
#X floatatom 108 357 5 0 0 2 wet - - 0;
#X obj 142 387 *~;
#X obj 168 185 r~ feedbackL;
#X obj 357 185 r~ feedbackR;
#X obj 4 433 dac~ 1 2;
#X obj 169 303 delread4~ tapedelayL;
#X obj 316 303 delread4~ tapedelayR;
#X obj 316 362 *~;
#X obj 169 362 *~;
#X obj 169 387 s~ feedbackL;
#X obj 316 387 s~ feedbackR;
#X obj 357 210 delwrite~ tapedelayR 4000;
#X obj 168 210 delwrite~ tapedelayL 4000;
#X obj 291 62 loadbang;
#X msg 464 100 0.75;
#X obj 565 60 param.change;
#X obj 419 61 param.get 2;
#X obj 375 159 param.set 2;
#X obj 346 61 param.get 1;
#X obj 291 159 param.set 1;
#X obj 494 60 param.get 3;
#X obj 465 165 param.set 3;
#X obj 291 119 s rDryWet;
#X msg 291 91 1;
#X obj 291 139 r sDryWet;
#X obj 22 190 r sDryWet;
#X obj 375 117 s rTime;
#X obj 375 138 r sTime;
#X obj 7 26 hsl 130 20 0 4000 0 0 sTime rTime Time 5 10 0 10 #fcfcfc #000000 #000000 0 1;
#X msg 375 95 1000;
#X obj 7 48 hsl 130 20 0 1 0 0 sFeedback rFeedback Feedback 5 10 0 10 #fcfcfc #000000 #000000 0 1;
#X obj 464 122 s rFeedback;
#X obj 466 144 r sFeedback;
#X obj 188 329 r sFeedback;
#X obj 4 107 adc~ 1 1;
#X msg 169 253 \$1 100;
#X obj 169 278 line~;
#X obj 169 232 r sTime;
#X connect 0 0 17 0;
#X connect 1 0 0 1;
#X connect 1 0 11 1;
#X connect 3 0 4 0;
#X connect 4 0 5 0;
#X connect 5 0 7 0;
#X connect 6 0 1 0;
#X connect 7 0 6 0;
#X connect 8 0 9 0;
#X connect 9 0 10 0;
#X connect 10 0 13 0;
#X connect 11 0 17 1;
#X connect 12 0 17 0;
#X connect 13 0 12 1;
#X connect 13 0 14 1;
#X connect 14 0 17 1;
#X connect 15 0 25 0;
#X connect 16 0 24 0;
#X connect 18 0 12 0;
#X connect 18 0 21 0;
#X connect 19 0 14 0;
#X connect 19 0 20 0;
#X connect 20 0 23 0;
#X connect 21 0 22 0;
#X connect 26 0 27 0;
#X connect 26 0 36 0;
#X connect 26 0 42 0;
#X connect 27 0 44 0;
#X connect 29 0 39 0;
#X connect 31 0 35 0;
#X connect 33 0 44 0;
#X connect 36 0 35 0;
#X connect 37 0 32 0;
#X connect 38 0 3 0;
#X connect 38 0 8 0;
#X connect 40 0 30 0;
#X connect 42 0 39 0;
#X connect 45 0 34 0;
#X connect 46 0 20 1;
#X connect 46 0 21 1;
#X connect 47 0 0 0;
#X connect 47 0 25 0;
#X connect 47 1 11 0;
#X connect 47 1 24 0;
#X connect 48 0 49 0;
#X connect 49 0 18 0;
#X connect 49 0 19 0;
#X connect 50 0 48 0;
#X coords 0 -1 1 1 140 70 2 2 2;
