#N canvas 380 375 1440 720 10;
#X obj 49 379 adc~ 1 2;
#X obj 49 733 *~;
#X floatatom 67 705 5 0 0 2 dry - - 0;
#X obj 8 28 hsl 130 20 0 127 0 0 empty empty Dry/Wet 5 10 0 12 #fcfcfc #000000 #000000 0 1;
#X obj 109 228 / 127;
#X obj 109 251 - 1;
#X obj 109 276 * -1;
#X obj 109 301 * 2;
#X floatatom 109 351 5 0 0 0 - - - 0;
#X obj 109 326 min 1;
#X obj 153 301 * 2;
#X obj 153 326 min 1;
#X floatatom 153 351 5 0 0 0 - - - 0;
#X obj 101 734 *~;
#X obj 135 733 *~;
#X floatatom 153 704 5 0 0 2 wet - - 0;
#X obj 187 734 *~;
#X obj 318 428 r~ feedbackL;
#X obj 507 428 r~ feedbackR;
#X obj 135 867 dac~ 1 2;
#X floatatom 36 52 6 0 4000 0 time - - 12;
#X msg 318 535 \$1 100;
#X obj 318 560 line~;
#X obj 318 585 delread4~ tapedelayL;
#X obj 465 585 delread4~ tapedelayR;
#X floatatom 103 73 6 0 20000 0 lpf - - 0;
#X obj 318 632 lop~ 8000;
#X obj 318 657 lop~ 8000;
#X obj 465 632 lop~ 8000;
#X obj 465 657 lop~ 8000;
#X obj 318 682 hip~ 300;
#X obj 465 682 hip~ 300;
#X floatatom 36 73 6 0 1 0 fb - - 0;
#X obj 465 707 *~;
#X obj 318 707 *~;
#X obj 318 732 s~ feedbackL;
#X obj 465 732 s~ feedbackR;
#X floatatom 103 51 6 0 20000 0 hpf - - 0;
#X obj 507 453 delwrite~ tapedelayR 4000;
#X obj 318 453 delwrite~ tapedelayL 4000;
#X obj 373 3 loadbang;
#X msg 373 28 127;
#X msg 406 28 750;
#X msg 439 28 0.75;
#X msg 478 27 20000;
#X msg 524 27 20;
#X obj 455 0 param.change;
#X obj 578 133 param.get 2;
#X obj 583 156 param.set 2;
#X obj 358 130 param.get 1;
#X obj 444 153 param.set 1;
#X obj 599 177 param.get 3;
#X obj 608 198 param.set 3;
#X obj 621 222 param.get 4;
#X obj 636 239 param.set 4;
#X obj 654 261 param.get 5;
#X obj 662 281 param.set 5;
#X obj 358 155 * 127;
#X obj 444 129 / 127;
#X connect 0 0 1 0;
#X connect 0 0 39 0;
#X connect 0 1 13 0;
#X connect 0 1 38 0;
#X connect 1 0 19 0;
#X connect 2 0 1 1;
#X connect 2 0 13 1;
#X connect 3 0 4 0;
#X connect 3 0 58 0;
#X connect 4 0 10 0;
#X connect 4 0 5 0;
#X connect 5 0 6 0;
#X connect 6 0 7 0;
#X connect 7 0 9 0;
#X connect 8 0 2 0;
#X connect 9 0 8 0;
#X connect 10 0 11 0;
#X connect 11 0 12 0;
#X connect 12 0 15 0;
#X connect 13 0 19 1;
#X connect 14 0 19 0;
#X connect 15 0 14 1;
#X connect 15 0 16 1;
#X connect 16 0 19 1;
#X connect 17 0 39 0;
#X connect 18 0 38 0;
#X connect 20 0 21 0;
#X connect 20 0 48 0;
#X connect 21 0 22 0;
#X connect 22 0 23 0;
#X connect 22 0 24 0;
#X connect 23 0 26 0;
#X connect 23 0 14 0;
#X connect 24 0 28 0;
#X connect 24 0 16 0;
#X connect 25 0 26 1;
#X connect 25 0 27 1;
#X connect 25 0 28 1;
#X connect 25 0 29 1;
#X connect 25 0 56 0;
#X connect 26 0 27 0;
#X connect 27 0 30 0;
#X connect 28 0 29 0;
#X connect 29 0 31 0;
#X connect 30 0 34 0;
#X connect 31 0 33 0;
#X connect 32 0 34 1;
#X connect 32 0 33 1;
#X connect 32 0 52 0;
#X connect 33 0 36 0;
#X connect 34 0 35 0;
#X connect 37 0 31 1;
#X connect 37 0 30 1;
#X connect 37 0 54 0;
#X connect 40 0 41 0;
#X connect 40 0 42 0;
#X connect 40 0 43 0;
#X connect 40 0 44 0;
#X connect 40 0 45 0;
#X connect 41 0 3 0;
#X connect 42 0 20 0;
#X connect 43 0 32 0;
#X connect 44 0 25 0;
#X connect 45 0 37 0;
#X connect 47 0 20 0;
#X connect 49 0 57 0;
#X connect 51 0 32 0;
#X connect 53 0 37 0;
#X connect 55 0 25 0;
#X connect 57 0 3 0;
#X connect 58 0 50 0;
#X coords 0 -1 1 1 150 100 2 2 2;
